<?xml version="1.0" encoding="utf-8"?>
<svg width="24px" height="19px" viewBox="0 0 24 19" version="1.1" xmlns:xlink="http://www.w3.org/1999/xlink" xmlns="http://www.w3.org/2000/svg">
  <path d="M23.9473 5.52632L23.9473 5.15789C23.9473 2.31 20.9448 0 17.2422 0L6.70532 0C3.00073 0 0 2.31 0 5.15789L0 5.89474C0 8.74263 3.00073 11.0526 6.70532 11.0526L17.4817 11.0526C18.4026 11.0526 19.158 11.6292 19.158 12.3421L19.158 13.4474C19.158 14.1603 18.4063 14.7368 17.4817 14.7368L6.46582 14.7368C5.54468 14.7368 4.78955 14.1603 4.78955 13.4474L4.78955 12.8947L0 12.8947L0 13.2632C0 16.111 3.00073 18.4211 6.70532 18.4211L17.2422 18.4211C20.9448 18.4211 23.9473 16.111 23.9473 13.2632L23.9473 12.5263C23.9473 9.67842 20.9448 7.36842 17.2422 7.36842L6.46582 7.36842C5.54468 7.36842 4.78955 6.79184 4.78955 6.07895L4.78955 4.97368C4.78955 4.26079 5.53931 3.68421 6.46582 3.68421L17.4817 3.68421C18.4026 3.68421 19.158 4.26079 19.158 4.97368L19.158 5.52632L23.9473 5.52632Z" id="Shape-Copy-9" fill="#FF6200" fill-rule="evenodd" stroke="none" />
</svg>