<?xml version="1.0" standalone="no"?><!DOCTYPE svg PUBLIC "-//W3C//DTD SVG 1.1//EN" "http://www.w3.org/Graphics/SVG/1.1/DTD/svg11.dtd"><svg t="1642744735994" class="icon" viewBox="0 0 1024 1024" version="1.1" xmlns="http://www.w3.org/2000/svg" p-id="1329" xmlns:xlink="http://www.w3.org/1999/xlink" width="200" height="200"><defs><style type="text/css"></style></defs><path d="M498.79336 810.066582a27.207868 27.207868 0 0 0-26.096148 19.952437 760.620817 760.620817 0 0 1-72.203246 176.79263c-12.960307 23.053548-46.399654 22.878014-59.389217-0.321814a763.926719 763.926719 0 0 1-98.006836-362.186457l-9.47887 7.899058c-53.947644 44.176216-130.568511 95.549351-114.360813 14.335329 22.995037-115.121463 142.036773-244.578254 157.27903-260.785952a766.881552 766.881552 0 0 1 171.906917-297.589713 68.458507 68.458507 0 0 1 100.347298 0 765.740577 765.740577 0 0 1 171.994683 296.770551c11.263472 11.907099 134.576551 144.347979 158.039681 261.605114 16.061419 81.038488-60.237635 30.016422-114.331557-14.159794l-0.175535-0.175535a854.297799 854.297799 0 0 1-9.829939-8.191616 762.844255 762.844255 0 0 1-98.006837 362.303481c-12.989563 23.199827-46.42891 23.550896-59.389217 0.321813a756.232451 756.232451 0 0 1-72.173989-176.617095 26.91531 26.91531 0 0 0-26.125405-19.952437z" fill="#FFB900" p-id="1330"></path><path d="M437.034425 301.689032a11.263472 11.263472 0 0 1-11.263472-11.263473v-17.407184a11.263472 11.263472 0 1 1 22.526945 0v17.407184c0 6.143712-5.11976 11.263472-11.263473 11.263473zM560.903364 301.689032a11.263472 11.263472 0 0 1-11.263472-11.263473v-17.407184a11.263472 11.263472 0 1 1 22.526944 0v17.407184c0 6.143712-4.944225 11.263472-11.263472 11.263473z" fill="#191919" p-id="1331"></path><path d="M438.877539 330.359688h-26.417962a8.016082 8.016082 0 1 1 0-16.032163H438.877539a8.016082 8.016082 0 1 1 0 16.032163zM585.478213 330.359688h-26.447218a8.016082 8.016082 0 1 1 0-16.032163h26.447218a8.016082 8.016082 0 1 1 0 16.032163z" fill="#FF6200" fill-opacity=".36" p-id="1332"></path><path d="M498.968895 358.357462c-15.008211 0-29.840887-5.646364-41.30915-17.085371a2.486741 2.486741 0 0 1 0-3.569204 2.486741 2.486741 0 0 1 3.59846 0 53.362528 53.362528 0 0 0 75.42138 0 2.486741 2.486741 0 0 1 3.59846 0 2.486741 2.486741 0 0 1 0 3.569204c-11.439007 11.263472-26.476474 17.085371-41.30915 17.085371z" fill="#191919" p-id="1333"></path><path d="M753.903692 670.458038a762.083605 762.083605 0 0 1-97.099907 335.856263c-12.960307 23.199827-46.399654 23.375362-59.389217 0.321813a759.450586 759.450586 0 0 1-72.17399-176.617095 25.862102 25.862102 0 0 0-9.712916-14.335329 26.91531 26.91531 0 0 0-42.479381 14.335329A756.261707 756.261707 0 0 1 400.845035 1006.636114c-12.960307 23.053548-46.42891 22.878014-59.389217-0.321813a762.902767 762.902767 0 0 1-97.275442-335.856263c7.021385-13.808724 25.101452-37.037807 68.253716-34.463299v-29.870144a24.574848 24.574848 0 0 1 6.143713-16.207697c13.165097-14.686398 53.947644-39.436781 180.566624-39.436781 126.618981 0 167.401527 24.750383 180.53737 39.436781a24.574848 24.574848 0 0 1 6.143712 16.207697v29.840888c43.005985-2.545252 61.086052 20.683831 68.107437 34.521811z" fill="#FF6200" p-id="1334"></path><path d="M378.493626 564.493632a230.389205 230.389205 0 0 1-1.696835 52.572622 18.577415 18.577415 0 0 1-7.343199 11.936355 20.449785 20.449785 0 0 1-12.11189 3.569204l5.968178-63.806839c2.545252-0.702139 5.266039-1.550556 7.840547-2.223438 1.696835-0.526604 3.218135-0.877673 4.973481-1.375022 0.819162-0.321813 1.667579-0.497348 2.340462-0.672882z" fill-opacity=".2" p-id="1335"></path><path d="M376.94307 616.364116a20.186483 20.186483 0 0 1-20.127971 20.157226 20.186483 20.186483 0 0 1-20.127972-20.157226c0-4.593156 1.5213-8.864499 4.271343-12.287425a17.377929 17.377929 0 0 1 5.617108-4.944225 5.090504 5.090504 0 0 1 1.375022-0.672883 19.396577 19.396577 0 0 1 8.864499-2.047904c6.670316 0 12.638494 3.218135 16.207697 8.367151a19.016252 19.016252 0 0 1 3.920274 11.585286z" fill="#F6F5F8" p-id="1336"></path><path d="M373.052052 604.603295c0 4.095808 0 8.191616-0.20479 12.287424a16.178442 16.178442 0 0 1-15.50556 15.50556h-1.023952a16.032163 16.032163 0 0 1-15.534814-16.529512c0.175535-3.920273 0.175535-7.869803 0.175534-11.790076a339.366955 339.366955 0 0 0-64.362698-198.646692c3.773995-12.287424 7.869803-24.574848 12.287424-36.657482a370.758399 370.758399 0 0 1 66.556881 122.523173c7.869803 24.574848 12.989563 49.647045 15.71035 75.070311 1.375021 12.638494 1.872369 25.452522 1.872369 38.237294z" fill="#FF6200" p-id="1337"></path><path d="M352.573012 624.233918l-1.053208 1.696835c1.375021 0.702139 2.750043 1.199487 4.271343 1.199487l0.175534-2.047904a4.91497 4.91497 0 0 1-3.422925-0.877674z m10.034729-1.023952a7.840547 7.840547 0 0 1-3.071856 1.696835l0.702139 1.872369a13.252865 13.252865 0 0 0 3.744739-2.047904l-1.375022-1.5213z m-14.481607-4.446877l-1.901625 0.526604a9.654405 9.654405 0 0 0 2.047904 3.920273l1.550556-1.375021a6.816595 6.816595 0 0 1-1.696835-3.071856z m17.728998-1.87237c0 1.170231-0.321813 2.398973-0.848417 3.422926l1.696835 0.848417a12.228913 12.228913 0 0 0 1.199486-4.271343h-2.047904z m-19.952436-5.792642v3.920273h2.047904c0-1.375021 0-2.720787 0.175534-4.095808l-2.223438 0.175535z m20.127971-2.223439v3.920273h2.047904v-4.095808l-2.047904 0.175535z m-20.127971-5.821899v3.920274h2.047904v-3.920274h-2.047904z m22.175875-2.194183h-2.047904v3.920274h2.047904v-0.321814-3.59846z m-20.127971-2.545252v-3.247391h-2.047904v3.920274h2.047904v-0.672883z m19.952436-5.470829h-2.047904c0 1.345766 0 2.720787 0.175535 4.095808h2.047904c-0.175535-1.375021-0.175535-2.750043-0.175535-4.095808z m-20.303506-5.821899l-2.047904 0.175535c0 1.375021 0.175535 2.750043 0.175535 3.920273h2.047904c-0.175535-1.345766-0.175535-2.720787-0.175535-4.095808z m19.952437-2.223438l-2.047904 0.175534c0 1.375021 0.175535 2.720787 0.175535 4.095808h2.047904c0-1.5213-0.175535-2.925577-0.175535-4.271342z m-20.47904-5.792643l-2.047905 0.175534c0.175535 1.375021 0.175535 2.720787 0.35107 3.920274l2.047904-0.175535c-0.175535-1.345766-0.321813-2.545252-0.321814-3.920273z m19.981692-2.223439l-2.047904 0.175535c0.175535 1.345766 0.175535 2.720787 0.351069 3.920273l2.047904-0.175535a27.968518 27.968518 0 0 1-0.351069-3.920273z m-20.654575-5.792643l-2.047904 0.146279c0.175535 1.375021 0.175535 2.574508 0.351069 3.949529l2.047904-0.175534c-0.175535-1.375021-0.175535-2.574508-0.351069-3.920274z m19.981692-2.223439l-2.047904 0.175535c0.146279 1.375021 0.146279 2.574508 0.321814 3.920274l2.047904-0.146279a28.02703 28.02703 0 0 1-0.321814-3.94953z m-20.83011-5.792642l-2.047904 0.175534 0.526604 3.920274 2.047904-0.175535-0.526604-3.920273z m19.952437-2.223439l-2.047904 0.175535 0.526604 3.920273 2.047904-0.175535c-0.351069-1.170231-0.351069-2.545252-0.526604-3.920273z m-20.976389-5.792643l-2.047904 0.321814 0.526604 3.949529 2.047904-0.351069a236.445149 236.445149 0 0 1-0.526604-3.920274z m19.981693-2.223439l-2.047904 0.321814 0.497348 3.920273 2.047904-0.321813a233.022224 233.022224 0 0 1-0.497348-3.920274z m-21.356714-5.821898l-2.047904 0.351069c0.175535 1.375021 0.526604 2.574508 0.702139 3.920273l2.047904-0.321813c-0.175535-1.199487-0.351069-2.574508-0.702139-3.949529z m19.981692-2.018649l-2.047904 0.35107c0.175535 1.345766 0.321813 2.545252 0.672883 3.920273l2.047904-0.351069c-0.175535-1.345766-0.351069-2.720787-0.672883-3.920274z m-21.356713-5.851154l-2.047904 0.351069c0.20479 1.375021 0.526604 2.574508 0.702138 3.94953l2.047904-0.35107c-0.175535-1.170231-0.497348-2.574508-0.672882-3.920273z m19.981692-2.164927l-2.047904 0.321813c0.351069 1.375021 0.526604 2.574508 0.672883 3.920274l2.047904-0.321814c-0.146279-1.199487-0.321813-2.574508-0.672883-3.920273z m-21.502992-5.646364l-2.047904 0.351069c0.351069 1.375021 0.526604 2.545252 0.877673 3.920274l2.047904-0.35107c-0.351069-1.345766-0.702139-2.545252-0.877673-3.920273z m19.981692-2.223439l-2.047904 0.35107c0.321813 1.345766 0.497348 2.545252 0.848417 3.920273l2.047904-0.351069c-0.351069-1.345766-0.526604-2.545252-0.877673-3.920274z m-21.854062-5.617108l-1.872369 0.497348c0.351069 1.375021 0.672883 2.574508 0.877673 3.920274l2.047904-0.497349-1.053208-3.920273z m20.127971-2.252694l-1.872369 0.526603c0.351069 1.375021 0.702139 2.545252 0.877673 3.920274l1.87237-0.351069c-0.351069-1.5213-0.526604-2.720787-0.877674-4.095808z m-22.175875-5.617109l-1.872369 0.526604 1.023952 3.920274 1.872369-0.526604-1.023952-3.920274z m20.303506-2.194183l-1.872369 0.497349 1.023952 3.949529 1.872369-0.526604-1.023952-3.920274z m-22.35141-5.500085l-1.872369 0.526604 1.023952 3.744739 1.872369-0.497348-1.023952-3.773995z m20.127971-2.194183l-1.872369 0.526604c0.351069 1.345766 0.702139 2.545252 1.023952 3.920274l1.872369-0.526604a14.744909 14.744909 0 0 0-1.023952-3.920274z m-22.526944-5.617108l-1.87237 0.672883c0.351069 1.199487 0.877673 2.574508 1.199487 3.773995l1.872369-0.526604a34.404788 34.404788 0 0 0-1.17023-3.920274z m20.332761-2.223438l-1.901625 0.497348c0.351069 1.199487 0.702139 2.574508 1.199487 3.744738l1.872369-0.497348c-0.321813-1.170231-0.672883-2.398973-1.170231-3.744738z m-22.702479-5.295295l-1.872369 0.672883 1.345765 3.773994 1.87237-0.702138a33.263813 33.263813 0 0 1-1.345766-3.744739z m20.303506-2.398974l-1.872369 0.672883 1.170231 3.773995 1.901625-0.702139-1.199487-3.744739z m-23.053548-5.266038l-1.87237 0.672882c0.526604 1.170231 0.877673 2.545252 1.375022 3.744739l1.872369-0.672883c-0.497348-1.199487-0.877673-2.398973-1.375021-3.773994z m20.47904-2.252695l-1.872369 0.672883c0.351069 1.199487 0.877673 2.574508 1.375021 3.773994l1.872369-0.702138c-0.497348-1.345766-0.877673-2.545252-1.375021-3.744739z m-23.375362-5.266039l-1.872369 0.672883c0.526604 1.170231 1.023952 2.545252 1.375021 3.744739l1.87237-0.672883a33.234557 33.234557 0 0 0-1.375022-3.773995z m20.654575-2.398973l-1.872369 0.702138c0.497348 1.170231 1.023952 2.545252 1.375021 3.744739l1.87237-0.672883c-0.526604-1.199487-0.877673-2.398973-1.375022-3.773994z m-23.697175-5.11976l-1.901625 0.848417c0.526604 1.170231 1.023952 2.369718 1.550556 3.744739l1.872369-0.848417c-0.526604-1.170231-1.023952-2.398973-1.550556-3.744739z m20.771598-2.369718l-1.843113 0.672883 1.5213 3.744739 1.872369-0.672883c-0.672883-1.170231-1.023952-2.398973-1.5213-3.744739z m-23.87271-4.973481l-1.872369 0.877673 1.550556 3.569204 1.872369-0.848417c-0.526604-1.023952-1.023952-2.398973-1.550556-3.569204z m20.83011-2.369718l-1.87237 0.848418a84.841739 84.841739 0 0 1 1.521301 3.744739l1.872369-0.877674a84.841739 84.841739 0 0 0-1.5213-3.715483z m-24.223779-4.973481l-1.901626 0.877673c0.526604 1.170231 1.199487 2.369718 1.726091 3.569205l1.872369-0.848418c-0.526604-1.023952-1.170231-2.398973-1.696834-3.569204z m20.976388-2.369717l-1.872369 0.848417c0.497348 1.170231 1.023952 2.369718 1.696835 3.569204l1.872369-0.848417c-0.672883-1.170231-1.170231-2.398973-1.696835-3.569204z m-24.574848-4.768691l-1.696835 0.848417c0.497348 1.170231 1.170231 2.369718 1.696835 3.569204l1.872369-0.848417c-0.672883-1.170231-1.170231-2.398973-1.872369-3.569204z m21.151923-2.574508l-1.87237 0.848417c0.526604 1.170231 1.199487 2.369718 1.726091 3.569204l1.872369-0.848417a34.11223 34.11223 0 0 1-1.72609-3.569204z m-24.896662-4.622412l-1.726091 1.023952c0.702139 1.199487 1.199487 2.398973 1.901625 3.59846l1.696835-0.877673a25.686568 25.686568 0 0 0-1.872369-3.744739z m21.327458-2.720787L326.623142 438.869347c0.497348 1.170231 1.170231 2.398973 1.696835 3.569204l1.696834-0.848418c-0.497348-1.170231-1.170231-2.369718-1.696834-3.569204z m-25.101453-4.271343l-1.696835 1.023952c0.672883 1.199487 1.375021 2.398973 2.047905 3.422926l1.696834-1.023952c-0.848417-1.199487-1.345766-2.223439-2.047904-3.422926z m21.356714-2.720786l-1.726091 0.877673c0.702139 1.170231 1.199487 2.369718 1.87237 3.569204l1.72609-1.023952c-0.702139-1.023952-1.199487-2.223439-1.872369-3.422925z m-25.452522-4.271343l-1.696835 1.023952c0.672883 1.170231 1.375021 2.223439 2.047904 3.422925l1.696835-1.023952c-0.672883-1.199487-1.345766-2.223439-2.047904-3.422925z m21.502993-2.896322l-1.696835 1.023952c0.672883 1.199487 1.375021 2.398973 2.047904 3.422926l1.696835-1.023952c-0.672883-1.023952-1.345766-2.223439-2.047904-3.422926z m-25.74508-3.920273l-1.72609 1.023952c0.702139 1.170231 1.375021 2.194183 2.047904 3.39367l1.72609-1.023952c-0.526604-1.170231-1.375021-2.369718-2.047904-3.39367z m21.824806-2.925577l-1.696835 1.053208c0.672883 1.170231 1.375021 2.223439 2.047904 3.422925l1.696835-1.023952c-0.672883-1.199487-1.345766-2.398973-2.047904-3.422925z m-26.096148-3.920274l-1.726091 1.170231c0.702139 1.053208 1.550556 2.252694 2.223439 3.452181l1.72609-1.023952c-0.877673-1.375021-1.550556-2.398973-2.223438-3.59846z m21.824805-3.0426l-1.696834 1.023952c0.672883 1.170231 1.375021 2.194183 2.047904 3.39367l1.696834-1.023952c-0.672883-1.023952-1.345766-2.223439-2.047904-3.39367z m-26.447217-3.59846l-1.696835 1.170231c0.877673 1.023952 1.5213 2.223439 2.223438 3.247391l1.696835-1.170231c-0.672883-1.053208-1.375021-2.223439-2.223438-3.247391z m22.205131-3.071856l-1.726091 1.023952c0.702139 1.023952 1.375021 2.223439 2.223439 3.422925l1.696834-1.023952c-0.848417-1.199487-1.5213-2.398973-2.194182-3.422925z m-26.798288-3.422925l-1.72609 1.170231c0.877673 1.053208 1.550556 2.252694 2.398973 3.276646l1.696835-1.199487c-0.848417-1.199487-1.5213-2.223439-2.369718-3.24739z m22.175876-3.39367l-1.696835 1.170231c0.672883 1.053208 1.5213 2.223439 2.223438 3.247391l1.696835-1.170231a115.092207 115.092207 0 0 0-2.223438-3.247391z m-4.593157-6.494781l-1.550556 1.170231c0.877673 1.053208 1.550556 2.252694 2.398974 3.276646l1.696834-1.199487c-1.023952-1.023952-1.696835-2.223439-2.545252-3.24739z m-4.797946-6.494782l-1.5213 1.199487c0.848417 1.023952 1.5213 2.047904 2.369717 3.247391l1.726091-1.170231c-0.877673-1.228742-1.726091-2.252694-2.574508-3.276647z m-4.768691-6.289991l-1.550556 1.170231c0.877673 1.023952 1.726091 2.047904 2.398973 3.247391l1.550556-1.170231c-0.877673-1.199487-1.726091-2.223439-2.398973-3.247391z" fill="#CC4900" p-id="1338"></path><path d="M350.817665 616.364116a5.968177 5.968177 0 1 1 11.994867 0 5.968177 5.968177 0 0 1-11.994867 0z" fill="#F6F5F8" p-id="1339"></path><path d="M618.595747 564.493632a230.21367 230.21367 0 0 0 1.696834 52.572622 18.606671 18.606671 0 0 0 7.343199 11.936355c2.925577 2.047904 6.816595 3.569204 12.11189 3.569204l-5.968178-63.806839c-2.545252-0.702139-5.266039-1.550556-7.840547-2.223438-1.726091-0.526604-3.247391-0.877673-4.973481-1.375022-0.848417-0.321813-1.696835-0.497348-2.369717-0.672882z" fill-opacity=".2" p-id="1340"></path><path d="M620.819185 616.364116a20.127971 20.127971 0 1 1 40.255943 0 20.127971 20.127971 0 0 1-40.255943 0z" fill="#F6F5F8" p-id="1341"></path><path d="M708.879059 368.772517c4.417622 12.11189 8.51343 24.223779 12.287424 36.686738a345.042575 345.042575 0 0 0-48.301279 95.549351 339.659513 339.659513 0 0 0-15.885885 114.858161 16.032163 16.032163 0 0 1-15.505559 16.558767h-1.901625a16.061419 16.061419 0 0 1-14.657142-15.534815c-0.175535-4.095808-0.175535-8.191616-0.175534-12.287424a366.662591 366.662591 0 0 1 17.553463-113.13207 369.85147 369.85147 0 0 1 66.586137-122.698708z" fill="#FF6200" p-id="1342"></path><path d="M708.52799 377.315202c-0.877673 1.023952-1.696835 2.047904-2.398974 3.218135l1.550556 1.199487c0.848417-1.023952 1.5213-2.047904 2.369718-3.218135l-1.5213-1.199487z m-4.973481 6.289991c-0.819162 1.023952-1.5213 2.223439-2.340462 3.247391l1.667579 1.199487c0.877673-1.023952 1.550556-2.223439 2.398973-3.218135l-1.696835-1.228743z m-4.768691 6.494782a39.407525 39.407525 0 0 1-2.369718 3.218135l1.696835 1.228742c0.877673-1.023952 1.550556-2.223439 2.398973-3.247391l-1.72609-1.199486z m-4.593157 6.494781c-0.672883 1.023952-1.550556 2.223439-2.223438 3.39367l1.696835 1.199486c0.702139-1.170231 1.550556-2.223439 2.223438-3.218135l-1.696835-1.375021z m22.35141 3.39367c-0.877673 1.023952-1.5213 2.223439-2.398973 3.218135l1.550556 1.228742c0.877673-1.023952 1.5213-2.223439 2.398973-3.247391l-1.550556-1.199486z m-26.798287 3.422925c-0.672883 1.170231-1.5213 2.223439-2.223439 3.422925l1.726091 1.023952c0.672883-1.199487 1.345766-2.223439 2.223439-3.422925l-1.726091-1.023952z m22.029596 3.071856l-2.223438 3.218135 1.696835 1.199487c0.702139-1.170231 1.550556-2.223439 2.223438-3.218135l-1.696835-1.199487z m-26.447217 3.59846c-0.702139 1.170231-1.375021 2.194183-2.047904 3.39367l1.696834 1.023952 2.047904-3.39367-1.696834-1.023952z m22.00034 3.0426c-0.672883 1.170231-1.5213 2.223439-2.223439 3.422926l1.726091 1.023952c0.672883-1.199487 1.345766-2.223439 2.194183-3.422926l-1.696835-1.023952z m-26.096149 3.94953c-0.702139 1.170231-1.375021 2.223439-2.047904 3.422925l1.696835 1.023952c0.672883-1.199487 1.375021-2.223439 2.047904-3.422925l-1.696835-1.023952z m21.649272 2.896321l-2.047904 3.39367 1.72609 1.023952 2.047904-3.39367-1.72609-1.023952z m-25.74508 3.920273l-2.047904 3.59846 1.696835 1.023952c0.672883-1.199487 1.375021-2.398973 1.87237-3.422925l-1.521301-1.170231z m21.649272 2.896322c-0.672883 1.170231-1.345766 2.398973-2.047904 3.422925l1.72609 1.023952c0.672883-1.199487 1.345766-2.223439 2.047904-3.422925l-1.72609-1.023952z m-25.423266 4.271343c-0.672883 1.199487-1.170231 2.398973-1.87237 3.59846l1.87237 1.023952c0.702139-1.170231 1.199487-2.398973 1.872369-3.59846l-1.872369-1.023952z m21.356713 2.720786l-2.047904 3.59846 1.696835 1.023952c0.672883-1.199487 1.345766-2.398973 1.87237-3.422925l-1.550556-1.170231z m-25.101452 4.271343c-0.526604 1.170231-1.170231 2.369718-1.696835 3.569204l1.696835 0.877673c0.497348-1.199487 1.170231-2.398973 1.872369-3.59846l-1.872369-0.877673z m21.151923 2.720787c-0.672883 1.199487-1.170231 2.398973-1.872369 3.59846l1.696835 0.877673c0.702139-1.228742 1.199487-2.428229 1.901625-3.59846l-1.726091-0.877673z m-24.750383 4.622412c-0.497348 1.170231-1.170231 2.369718-1.696835 3.569204l1.87237 0.877673c0.526604-1.228742 1.199487-2.398973 1.72609-3.59846l-1.901625-0.877673z m21.005644 2.574508c-0.526604 1.170231-1.170231 2.369718-1.696834 3.569204l1.872369 0.877673c0.497348-1.228742 1.170231-2.398973 1.696835-3.59846l-1.87237-0.877673z m-24.399314 4.768691c-0.526604 1.170231-1.023952 2.369718-1.72609 3.569204l1.901625 0.877673c0.497348-1.228742 1.023952-2.398973 1.696835-3.59846l-1.87237-0.877673z m20.976389 2.398973c-0.497348 1.170231-1.170231 2.369718-1.696835 3.569204l1.87237 0.877673c0.526604-1.228742 1.199487-2.398973 1.696834-3.59846l-1.872369-0.877673z m-24.223779 4.944225c-0.526604 1.170231-1.023952 2.369718-1.550556 3.744739l1.901625 0.877673a84.841739 84.841739 0 0 0 1.5213-3.80325l-1.872369-0.819162z m20.830109 2.398974a66.410602 66.410602 0 0 1-1.72609 3.744739l1.872369 0.877673c0.526604-1.228742 1.023952-2.428229 1.726091-3.59846l-1.87237-1.023952z m-23.901965 4.944225l-1.5213 3.744739 1.872369 0.672883 1.5213-3.744739-1.872369-0.672883z m20.654575 2.340462c-0.526604 1.199487-1.023952 2.574508-1.550556 3.773995l1.872369 0.877673 1.550556-3.803251-1.872369-0.819161z m-23.550897 5.149016c-0.526604 1.199487-0.877673 2.574508-1.375021 3.773994l1.872369 0.672883c0.526604-1.170231 0.877673-2.545252 1.375022-3.744739l-1.87237-0.702138z m20.479041 2.369717c-0.526604 1.199487-1.023952 2.574508-1.375022 3.773995l1.87237 0.672883c0.526604-1.170231 1.023952-2.545252 1.550556-3.744739l-2.047904-0.702139z m-23.199828 5.295295c-0.526604 1.199487-0.877673 2.574508-1.375021 3.744739l1.87237 0.702138c0.351069-1.199487 0.877673-2.574508 1.375021-3.773994l-1.87237-0.672883z m20.479041 2.223439c-0.526604 1.199487-0.877673 2.574508-1.375021 3.773994l1.872369 0.672883c0.497348-1.170231 0.877673-2.574508 1.375021-3.744739l-1.901625-0.702138z m-23.229083 5.295294l-1.170231 3.744739 1.872369 0.702139 1.170231-3.773995-1.872369-0.672883z m20.47904 2.398974c-0.351069 1.170231-0.848417 2.574508-1.170231 3.744739l1.843114 0.702138c0.351069-1.199487 0.877673-2.574508 1.375021-3.773994l-2.047904-0.672883z m-22.848758 5.266039c-0.351069 1.375021-0.877673 2.574508-1.199486 3.949529l1.872369 0.497348a24.194523 24.194523 0 0 1 1.170231-3.744739l-1.843114-0.672882z m20.303506 2.252694c-0.351069 1.375021-0.877673 2.545252-1.199486 3.920274l1.872369 0.497348c0.351069-1.345766 0.877673-2.545252 1.170231-3.744739l-1.843114-0.672883z m-22.526944 5.617108l-1.023952 3.920274 1.872369 0.526604 1.023952-3.920274-1.872369-0.526604z m20.303505 2.194183a34.463299 34.463299 0 0 1-1.199486 3.94953l1.872369 0.497348 1.023952-3.744739-1.696835-0.702139z m-22.351409 5.500085c-0.351069 1.375021-0.702139 2.545252-1.023952 3.920274l2.047904 0.526604c0.321813-1.375021 0.672883-2.574508 1.023952-3.949529l-2.047904-0.497349z m20.127971 2.194183l-1.023952 3.920274 1.872369 0.526604 1.023952-3.920274-1.872369-0.526604z m-22.000341 5.617109c-0.351069 1.375021-0.702139 2.574508-0.877673 3.949529l2.047904 0.321813c0.351069-1.345766 0.526604-2.545252 0.877673-3.920273l-2.047904-0.351069z m19.952437 2.252694c-0.351069 1.345766-0.672883 2.545252-0.877673 3.920273l2.047904 0.497349c0.351069-1.345766 0.526604-2.545252 0.877673-3.920274l-2.047904-0.497348z m-21.854062 5.617108c-0.321813 1.375021-0.497348 2.574508-0.848417 3.920274l2.047904 0.351069c0.175535-1.375021 0.526604-2.574508 0.877673-3.920273l-2.047904-0.35107z m20.157227 2.223439c-0.351069 1.375021-0.526604 2.574508-0.877673 3.920273l2.047904 0.35107c0.175535-1.375021 0.526604-2.545252 0.877673-3.920274l-2.047904-0.351069z m-21.678527 5.646364c-0.175535 1.345766-0.526604 2.545252-0.672883 3.920273l2.047904 0.321814c0.146279-1.345766 0.497348-2.545252 0.672883-3.920274l-2.047904-0.321813z m20.127971 2.194183c-0.175535 1.345766-0.497348 2.545252-0.672883 3.920273l2.047904 0.35107c0.175535-1.375021 0.497348-2.574508 0.672883-3.94953l-2.047904-0.321813z m-21.502992 5.821898a26.827543 26.827543 0 0 1-0.672883 3.920274l2.047904 0.351069c0.175535-1.375021 0.351069-2.574508 0.672883-3.920273l-2.047904-0.35107z m19.981692 2.047905a26.798287 26.798287 0 0 1-0.702139 3.920273l2.047904 0.321813a26.798287 26.798287 0 0 1 0.702139-3.920273l-2.047904-0.351069z m-21.181179 5.792642l-0.497348 3.920274 2.047904 0.321813 0.497348-3.920273-2.047904-0.321814z m19.981692 2.223439l-0.526604 3.920274 2.047904 0.351069 0.526604-3.949529-2.047904-0.321814z m-21.005644 5.792643a236.913242 236.913242 0 0 1-0.497348 3.920273l2.047904 0.175535 0.497348-3.920273-2.047904-0.175535z m19.981692 2.223439a236.825474 236.825474 0 0 1-0.526604 3.920273l2.047904 0.175535 0.526604-3.920274-2.047904-0.175534z m-20.830109 5.792642c-0.175535 1.375021-0.321813 2.750043-0.321814 3.94953l2.047904 0.146279c0.146279-1.345766 0.146279-2.545252 0.321814-3.920274l-2.047904-0.175535z m19.981692 2.223439c-0.175535 1.345766-0.175535 2.720787-0.351069 4.095808l2.047904 0.146279c0.175535-1.345766 0.175535-2.720787 0.351069-3.920273l-2.047904-0.321814z m-20.654575 5.792643c-0.175535 1.375021-0.175535 2.720787-0.351069 4.095808l2.047904 0.175535c0.175535-1.375021 0.175535-2.750043 0.351069-3.920274l-2.047904-0.351069z m19.952436 2.223439c-0.146279 1.375021-0.146279 2.720787-0.321813 4.095808l2.047904 0.175534c0-1.375021 0.175535-2.720787 0.321813-3.920273l-2.047904-0.351069z m-20.47904 5.792643c0 1.375021-0.146279 2.750043-0.146279 4.095808h2.047904c0-1.345766 0.146279-2.720787 0.146279-4.095808h-2.047904z m19.981692 2.223438c0 1.375021-0.175535 2.750043-0.175534 4.095808h2.047904c0-1.345766 0.175535-2.720787 0.175534-3.920273l-2.047904-0.175535z m-20.303506 5.821899c0 1.345766 0 2.720787-0.175534 4.095808h2.047904c0-1.375021 0-2.750043 0.175534-4.095808h-2.047904z m19.952437 2.223438v3.920274h2.047904c0-1.375021 0-2.720787 0.175535-3.920274h-2.223439z m-20.127971 5.792643v3.920274h2.047904v-0.321814-3.59846h-2.047904z m19.952436 2.194183v3.920274h2.047904v-3.920274h-2.047904z m-17.904532 5.821899h-2.047904v4.095808h2.047904v-4.095808z m19.952436 2.223439h-2.047904c0 1.345766 0 2.720787 0.175535 4.095808h2.047904c0-1.375021 0-2.750043-0.175535-4.095808z m-19.776902 5.792642l-2.047904 0.175535c0.175535 1.5213 0.497348 2.896321 1.170231 4.271343l1.726091-0.877673a9.157057 9.157057 0 0 1-0.877673-3.569205z m17.553464 1.87237a8.484174 8.484174 0 0 1-1.696835 3.247391l1.550556 1.375021a17.202394 17.202394 0 0 0 2.047904-3.920274l-1.87237-0.702138z m-14.481607 4.446877l-1.375022 1.5213a9.069289 9.069289 0 0 0 3.744739 2.047904l0.702139-1.872369a7.869803 7.869803 0 0 1-3.071856-1.696835z m10.063985 1.023952a11.321984 11.321984 0 0 1-3.422925 1.023952l0.175534 2.047904a12.228913 12.228913 0 0 0 4.271343-1.170231l-1.023952-1.901625z" fill="#CC4900" p-id="1343"></path><path d="M634.978979 616.364116a5.968177 5.968177 0 1 1 11.936355 0 5.968177 5.968177 0 0 1-11.936355 0z" fill="#F6F5F8" p-id="1344"></path><path d="M638.050835 223.839422c-32.093582-3.218135-75.77245-12.082634-123.049777-25.745079-42.654916-12.287424-80.89221-26.447218-109.211797-39.58306 10.766124-13.83798 22.175875-27.324891 33.936695-40.285198 26.973822 4.622412 58.74559 11.936355 92.155682 21.502993 21.854062 6.319247 42.333102 12.960307 61.115308 19.806157 16.032163 20.625319 31.06963 42.128312 45.053889 64.333443z" fill-opacity=".2" p-id="1345"></path><path d="M514.884035 181.798878C422.523563 155.088358 351.432037 120.420268 356.083704 104.300338c4.680924-16.090675 83.320439-7.547989 175.651655 19.133275 92.360472 26.681264 163.451998 61.37861 158.800331 77.469284-4.651668 16.11993-83.291183 7.577245-175.651655-19.104019z" fill="#06070A" p-id="1346"></path><path d="M519.184633 166.878434c-44.995377-13.018819-79.634211-29.928655-77.352261-37.798457 2.28195-7.899058 40.607012-3.744739 85.602389 9.27408 44.995377 12.989563 79.634211 29.899399 77.352261 37.798457-2.252694 7.869803-40.577756 3.715483-85.602389-9.27408z" fill="#131720" p-id="1347"></path><path d="M604.757766 176.094002l-162.779115-47.101792 18.928484-124.249264 194.199815 55.966292-50.319928 115.384764z" fill="#131720" p-id="1348"></path><path d="M605.459905 152.338316c-21.678527-0.848417-49.325232-5.968177-77.995888-14.159794-28.670657-8.367151-54.766805-18.75295-73.549011-29.519074a147.156533 147.156533 0 0 1-8.191616-4.973481l-2.223439 14.189049c23.404618 14.159794 57.341313 26.447218 80.219327 33.117534 22.848758 6.64106 58.189731 14.335328 85.485366 14.832676l5.792643-13.135841c-2.720787-0.175535-5.968177-0.175535-9.537382-0.351069z" fill="#FF6200" p-id="1349"></path><path d="M553.121329 49.650556c-53.596574-15.505559-94.847213-35.604275-92.155682-44.90761 2.691531-9.361847 48.330535-4.35911 101.92711 11.117193 53.596574 15.505559 94.876469 35.604275 92.155682 44.936866-2.691531 9.332591-48.30128 4.329854-101.92711-11.146449z" fill="#06070A" p-id="1350"></path><path d="M414.156412 667.590972v-0.702138c0-5.617108-5.968177-10.23952-13.311377-10.23952h-21.005644c-7.313943 0-13.28212 4.622412-13.28212 10.23952v1.550556c0 5.617108 5.968177 10.23952 13.28212 10.23952h21.356714c1.872369 0 3.39367 1.170231 3.393669 2.545252v2.223439c0 1.375021-1.5213 2.574508-3.393669 2.574508h-22.029597c-1.872369 0-3.422925-1.199487-3.422925-2.574508v-1.023952h-9.537382v0.672882c0 5.646364 5.968177 10.23952 13.311377 10.239521h20.976388c7.343199 0 13.311376-4.593156 13.311376-10.239521v-1.5213c0-5.646364-5.968177-10.23952-13.311376-10.23952H379.195764c-1.872369 0-3.422925-1.170231-3.422925-2.574508v-2.194183c0-1.375021 1.550556-2.574508 3.422925-2.574508h22.029597c1.872369 0 3.39367 1.199487 3.393669 2.574508v1.023952h9.566638zM425.244349 656.649314h9.566638v36.686738h-9.566638v-36.686738zM552.2144 667.590972v-0.702138c0-5.617108-5.968177-10.23952-13.311376-10.23952h-21.151924c-7.343199 0-13.311376 4.622412-13.311376 10.23952v1.550556c0 5.617108 5.968177 10.23952 13.311376 10.23952h21.327458c1.872369 0 3.39367 1.170231 3.39367 2.545252v2.223439c0 1.375021-1.5213 2.574508-3.39367 2.574508h-22.029596c-1.872369 0-3.39367-1.199487-3.39367-2.574508v-1.023952h-9.566637v0.672882c0 5.646364 5.968177 10.23952 13.311376 10.239521h20.976389c7.343199 0 13.311376-4.593156 13.311376-10.239521v-1.5213c0-5.646364-5.968177-10.23952-13.311376-10.23952h-21.327458c-1.872369 0-3.39367-1.170231-3.39367-2.574508v-2.194183c0-1.375021 1.5213-2.574508 3.39367-2.574508h22.029596c1.872369 0 3.39367 1.199487 3.39367 2.574508v1.023952h9.742172zM563.126803 656.649314h9.566637v36.686738h-9.566637v-36.686738zM631.380519 668.263855v-1.550556c0-5.617108-5.968177-10.23952-13.311376-10.23952h-34.287765v36.715994h9.566637v-29.372795h25.247732c1.872369 0 3.422925 1.199487 3.422925 2.574508v2.223438c0 1.345766-1.550556 2.545252-3.422925 2.545252h-17.933789v7.313943h17.933789c1.872369 0 3.422925 1.228742 3.422925 2.574508V693.014238h9.537382v-11.614541a9.361847 9.361847 0 0 0-3.071856-6.641061 8.864499 8.864499 0 0 0 2.925577-6.494781zM483.931428 656.649314v25.5988l-28.670657-25.5988h-9.537381v36.686738h9.566637v-25.74508l28.670657 25.74508h9.537381v-36.686738h-9.537381z" opacity=".2" p-id="1351"></path><path d="M414.156412 665.191999v-0.702139c0-5.617108-5.968177-10.23952-13.311377-10.23952h-21.005644c-7.313943 0-13.28212 4.622412-13.28212 10.23952v1.550556c0 5.617108 5.968177 10.23952 13.28212 10.239521h21.356714c1.872369 0 3.39367 1.170231 3.393669 2.545252v2.223438c0 1.375021-1.5213 2.574508-3.393669 2.574508h-22.029597c-1.872369 0-3.422925-1.199487-3.422925-2.574508v-1.023952h-9.537382v0.672883c0 5.646364 5.968177 10.23952 13.311377 10.23952h20.976388c7.343199 0 13.311376-4.593156 13.311376-10.23952v-1.5213c0-5.646364-5.968177-10.23952-13.311376-10.23952H379.195764c-1.872369 0-3.422925-1.170231-3.422925-2.574508v-2.194183c0-1.375021 1.550556-2.574508 3.422925-2.574508h22.029597c1.872369 0 3.39367 1.199487 3.393669 2.574508v1.023952h9.566638zM425.068815 654.074806h9.566637v36.715994h-9.566637v-36.715994zM552.038865 665.191999v-0.702139c0-5.617108-5.968177-10.23952-13.311376-10.23952h-20.976389c-7.343199 0-13.311376 4.622412-13.311376 10.23952v1.550556c0 5.617108 5.968177 10.23952 13.311376 10.239521h21.327458c1.872369 0 3.39367 1.170231 3.39367 2.545252v2.223438c0 1.375021-1.5213 2.574508-3.39367 2.574508h-22.029596c-1.872369 0-3.39367-1.199487-3.39367-2.574508v-1.023952h-9.566637v0.672883c0 5.646364 5.968177 10.23952 13.311376 10.23952h20.976389c7.343199 0 13.311376-4.593156 13.311376-10.23952v-1.5213c0-5.646364-5.968177-10.23952-13.311376-10.23952h-21.327458c-1.872369 0-3.39367-1.170231-3.39367-2.574508v-2.194183c0-1.375021 1.5213-2.574508 3.39367-2.574508h22.029596c1.872369 0 3.39367 1.199487 3.39367 2.574508v1.023952h9.566637zM563.126803 654.074806h9.566637v36.715994h-9.566637v-36.715994zM631.380519 665.864882v-1.550556c0-5.617108-5.968177-10.23952-13.311376-10.23952h-34.287765v36.715994h9.566637v-29.372796h25.247732c1.872369 0 3.422925 1.199487 3.422925 2.574508v2.223439c0 1.345766-1.550556 2.545252-3.422925 2.545252h-17.933789v7.313943h17.933789c1.872369 0 3.422925 1.228742 3.422925 2.574508V690.615265h9.537382v-11.614542a9.361847 9.361847 0 0 0-3.071856-6.64106 9.186312 9.186312 0 0 0 2.925577-6.494781zM483.785149 654.074806v25.774335l-28.495122-25.74508h-9.566637v36.686739h9.566637v-25.598801l28.495122 25.598801h9.537382v-36.715994h-9.537382z" fill="#F6F6F8" p-id="1352"></path><path d="M471.644004 833.968548l1.053208-3.949529a26.973822 26.973822 0 0 1 25.423265-19.952437 216.317178 216.317178 0 0 1-134.664318-47.277328 161.784419 161.784419 0 0 0 108.217101 71.179294zM499.641778 810.066582a28.670657 28.670657 0 0 1 15.885884 5.470829 28.114797 28.114797 0 0 1 9.712916 14.335329c0.351069 1.345766 0.702139 2.545252 1.023952 3.920273a161.053025 161.053025 0 0 0 108.041566-71.179293 215.439505 215.439505 0 0 1-134.664318 47.452862z" fill-opacity=".2" p-id="1353"></path><path d="M740.592316 676.279937c-0.672883-1.199487-1.170231-2.398973-1.87237-3.422926l1.726091-1.023952 2.047904 3.569204-1.901625 0.877674z m-483.451633-0.35107l-1.696834-0.877673 2.047904-3.569204 1.696834 1.023952a13.955003 13.955003 0 0 0-2.047904 3.422925z m479.385081-6.319246c-0.877673-1.023952-1.550556-2.047904-2.398974-3.071856l1.5213-1.375022c0.877673 1.023952 1.726091 2.047904 2.574508 3.247391l-1.696834 1.199487z m-475.289273-0.35107l-1.5213-1.170231c0.877673-1.053208 1.696835-2.223439 2.545252-3.24739l1.550556 1.345765-2.574508 3.071856z m470.140257-5.617108c-0.848417-0.877673-1.872369-1.872369-2.896322-2.574508l1.375022-1.5213c1.023952 0.877673 2.047904 1.696835 3.071856 2.720787l-1.521301 1.375021zM266.561042 663.290374l-1.345766-1.345766a44.176216 44.176216 0 0 1 3.071856-2.750042l1.170231 1.550556c-1.023952 0.848417-2.047904 1.696835-2.896321 2.545252z m458.876784-4.622412c-1.023952-0.672883-2.194183-1.5213-3.218135-2.047904l1.023952-1.696835c1.170231 0.672883 2.369718 1.345766 3.39367 2.223439l-1.170231 1.5213z m-452.879351-0.351069l-1.199486-1.696835c1.170231-0.877673 2.194183-1.5213 3.393669-2.223439l1.023952 1.726091a21.707783 21.707783 0 0 1-3.218135 2.194183z m446.062756-3.744739l-3.569204-1.5213 0.672883-1.87237a25.18922 25.18922 0 0 1 3.744739 1.696835l-0.848418 1.696835z m-439.246161-0.146279l-0.877673-1.901625c1.199487-0.497348 2.574508-1.170231 3.773995-1.5213l0.672882 1.872369-3.569204 1.550556z m431.902962-2.750043c-1.170231-0.351069-2.545252-0.672883-3.744738-1.023952l0.497348-1.872369c1.375021 0.321813 2.750043 0.672883 3.949529 1.023952l-0.702139 1.872369z m-424.559763 0l-0.526604-1.872369c1.199487-0.351069 2.574508-0.702139 3.920273-1.023952l0.526604 1.872369a16.67579 16.67579 0 0 0-3.920273 1.023952z m416.894751-1.843113c-1.199487-0.175535-2.574508-0.526604-3.920273-0.526604l0.146278-2.047904c1.375021 0.175535 2.750043 0.351069 4.095809 0.672883l-0.321814 1.901625z m-409.229739 0l-0.351069-2.047904c1.375021-0.175535 2.574508-0.526604 4.095808-0.526604l0.175535 2.047904c-1.345766 0-2.545252 0.351069-3.920274 0.526604z m27.792984-0.526604l-3.891018-0.175535 0.175534-2.047904 3.920274 0.175535-0.175535 2.047904z m353.790051 0l-0.175535-2.047904 3.920273-0.175535 0.175535 2.047904-3.920273 0.175535z m19.776901-0.526604c-1.345766-0.146279-2.545252-0.146279-3.920273-0.146279v-2.047904c1.375021 0 2.750043 0.146279 4.095808 0.146279l-0.175535 2.047904z m-381.553778 0h-0.526604c-1.170231 0-2.369718-0.146279-3.569204-0.146279v-2.047904c1.170231 0 2.369718 0 3.569204 0.146279h0.526604v2.047904z m-11.965611 0l-0.146279-2.047904c1.345766-0.146279 2.720787-0.146279 4.095808-0.146279v2.047904c-1.199487 0-2.574508 0.146279-3.949529 0.146279z m381.758569 0l-0.175535-2.047904c1.375021-0.146279 2.720787-0.146279 4.095808-0.146279v2.047904c-1.375021 0.146279-2.545252 0.146279-3.920273 0.146279z m-9.742172-1.696835h-2.047904v-4.095808h2.047904v4.095808z m-348.787314-0.526604h-2.047904v-4.095808h2.047904v4.095808z m348.787314-7.665012h-2.047904v-4.095808h2.047904v4.095808z m-348.787314-0.321814h-2.047904v-4.095808h2.047904v4.095808z m348.787314-7.694268h-2.047904v-4.095808h2.047904v4.095808zM325.423655 630.494653h-2.047904v-4.095808h2.047904v4.095808z m348.787314-7.694268h-2.047904v-4.095808h2.047904v4.095808z m-348.787314-0.321813h-2.047904v-4.095808h2.047904v4.095808z m348.787314-7.694268h-2.047904v-3.920274h2.047904v3.920274z m-348.787314-0.351069h-2.047904v-4.095809h2.047904v4.095809z m346.73941-7.489478a13.63319 13.63319 0 0 0-0.848417-3.569204l1.872369-0.672883c0.526604 1.345766 0.877673 2.720787 1.023952 4.095808l-2.047904 0.146279z m-346.73941-0.321814l-2.047904-0.175534a11.35124 11.35124 0 0 1 1.170231-4.095808l1.901625 0.848417a8.952266 8.952266 0 0 0-1.023952 3.422925z m344.047879-6.494781l-0.526604-0.497348c-0.702139-0.702139-1.375021-1.550556-2.223438-2.223439l1.345765-1.550556c0.877673 0.877673 1.726091 1.550556 2.398973 2.398974a2.398973 2.398973 0 0 1 0.526604 0.672882l-1.550556 1.199487z m-340.976023-0.351069l-1.550556-1.345766 0.175535-0.351069 2.720787-2.720787 1.375021 1.5213-2.545252 2.574508-0.175535 0.321814z m335.329659-4.973481c-1.023952-0.848417-2.047904-1.5213-3.247391-2.369718l1.170231-1.726091c1.199487 0.877673 2.223439 1.550556 3.247391 2.398974l-1.170231 1.696835z m-329.71255-0.292558l-1.170231-1.550556c0.994696-0.848417 2.194183-1.5213 3.218135-2.369718l1.199486 1.696835c-1.170231 0.672883-2.223439 1.5213-3.218135 2.223439z m323.217769-4.095808a21.883317 21.883317 0 0 0-3.422926-1.901625l1.023952-1.696835 3.59846 2.047904-1.199486 1.5213z m-316.722988-0.204791l-1.023952-1.696834c1.023952-0.672883 2.223439-1.375021 3.569204-2.047904l1.023952 1.696834-3.569204 2.047904z m309.730858-3.569204c-1.199487-0.497348-2.398973-1.170231-3.59846-1.696835l0.877673-1.872369c1.345766 0.497348 2.545252 1.170231 3.744739 1.696835l-1.023952 1.872369zM347.59953 586.493972l-0.877673-1.872369c1.228742-0.497348 2.398973-1.170231 3.803251-1.696835l0.819161 1.87237a25.130708 25.130708 0 0 0-3.744739 1.696834z m295.39553-3.071856c-1.170231-0.526604-2.398973-1.023952-3.744738-1.375021l0.672882-1.872369c1.375021 0.526604 2.545252 1.023952 3.744739 1.550555l-0.672883 1.696835z m-288.052331-0.175534l-0.702138-1.87237c1.199487-0.526604 2.398973-1.023952 3.773994-1.375021l0.672883 1.872369a24.370058 24.370058 0 0 0-3.744739 1.375022z m280.709133-2.545253c-1.170231-0.351069-2.545252-0.848417-3.744739-1.17023l0.672883-1.901626c1.375021 0.351069 2.574508 0.877673 3.773994 1.199487l-0.702138 1.872369z m-273.219655-0.175534l-0.672883-1.87237c1.199487-0.351069 2.574508-0.848417 3.744739-1.17023l0.702138 1.843113a24.165268 24.165268 0 0 0-3.773994 1.199487z m265.554642-2.398974l-3.920273-1.023952 0.497348-1.872369 3.920274 1.023952-0.497349 1.872369z m-257.860374 0l-0.526604-1.872369a127.262608 127.262608 0 0 1 3.949529-1.023952l0.497348 1.872369c-1.5213 0.175535-2.720787 0.702139-3.920273 1.023952z m250.166106-2.047904c-1.170231-0.351069-2.545252-0.672883-3.920273-1.023952l0.526604-1.872369 3.920273 1.023952-0.526604 1.872369z m-242.501094-0.175534l-0.497348-1.87237a127.262608 127.262608 0 0 1 3.920273-1.023952l0.526604 1.87237a19.104019 19.104019 0 0 1-3.949529 1.023952z m234.631292-1.667579c-1.170231-0.351069-2.545252-0.526604-3.891018-0.877673l0.321814-2.047904c1.375021 0.351069 2.750043 0.526604 3.949529 0.877673l-0.35107 2.047904z m-226.937024 0l-0.526604-1.901625c1.375021-0.321813 2.574508-0.497348 3.94953-0.848418l0.321813 2.047904c-1.170231 0-2.369718 0.351069-3.744739 0.702139z m219.272011-1.550556c-1.345766-0.175535-2.545252-0.526604-3.920273-0.702139l0.351069-2.047904c1.375021 0.175535 2.720787 0.526604 3.920274 0.702139l-0.35107 2.047904z m-211.431464-0.175535l-0.321813-2.047904c1.345766-0.175535 2.545252-0.526604 3.920273-0.672883l0.321814 2.047905c-1.345766 0.146279-2.545252 0.497348-3.920274 0.672882z m203.415383-1.375021c-1.345766-0.175535-2.545252-0.497348-3.920274-0.672883l0.35107-2.047904c1.345766 0.175535 2.720787 0.497348 3.920273 0.672883l-0.351069 2.047904z m-195.54558 0l-0.35107-2.047904c1.375021-0.175535 2.545252-0.497348 3.920274-0.672883l0.351069 2.047904c-1.199487 0.175535-2.574508 0.497348-3.920273 0.672883z m187.705033-1.170231c-1.375021-0.20479-2.574508-0.380325-3.920273-0.526604l0.321813-2.047904 3.949529 0.497348-0.351069 2.047904z m-179.688952 0l-0.351069-2.047904c1.375021-0.20479 2.574508-0.380325 3.920273-0.526604l0.35107 2.047904c-1.375021 0-2.720787 0.321813-3.920274 0.497348z m171.848405-1.053208l-3.949529-0.526604 0.175535-2.047904 3.920273 0.526604-0.146279 2.047904z m-164.007858-0.175534l-0.175534-2.047904 3.920273-0.497348 0.175535 2.047904-3.920274 0.497348z m155.962521-0.877673c-1.345766-0.146279-2.545252-0.292558-3.920274-0.292558l0.175535-2.047904c1.375021 0.146279 2.720787 0.292558 3.920273 0.292557l-0.175534 2.047905z m-147.946439 0l-0.175535-2.047905c1.375021-0.146279 2.750043-0.292558 3.949529-0.292557l0.146279 2.047904a27.997774 27.997774 0 0 0-3.920273 0.292558z m139.930357-0.819162c-1.345766-0.146279-2.545252-0.146279-3.920273-0.321814l0.175534-2.047904c1.375021 0.175535 2.720787 0.175535 3.920274 0.321814l-0.175535 2.047904z m-132.060555 0l-0.175534-2.047904c1.345766-0.146279 2.720787-0.146279 3.920273-0.321814l0.175535 2.047904c-1.199487 0.175535-2.574508 0.175535-3.920274 0.321814z m124.220008-0.672883c-1.375021-0.175535-2.720787-0.175535-3.920273-0.351069l0.175535-2.047904c1.345766 0.175535 2.720787 0.175535 3.920273 0.351069l-0.175535 2.047904z m-116.203926 0l-0.175535-2.047904c1.375021-0.175535 2.720787-0.175535 3.920274-0.351069l0.175534 2.047904a28.02703 28.02703 0 0 1-3.920273 0.351069z m108.187845-0.526604c-1.375021-0.146279-2.720787-0.146279-3.920274-0.146279l0.175535-2.047904c1.345766 0 2.720787 0.146279 3.920273 0.146279l-0.175534 2.047904z m-100.171764 0l-0.175534-2.047904c1.375021 0 2.720787-0.146279 3.920273-0.146279l0.175535 2.047904c-1.375021 0-2.545252 0-3.920274 0.146279z m92.155682-0.497348c-1.375021 0-2.750043-0.175535-3.920273-0.175535l0.146279-2.047904c1.375021 0 2.750043 0.175535 4.095808 0.175535l-0.321814 2.047904z m-84.1396 0l-0.175535-2.047904c1.375021 0 2.720787-0.175535 4.095808-0.175535l0.175535 2.047904c-1.550556 0-2.720787 0.175535-4.095808 0.175535z m76.123519-0.351069c-1.375021 0-2.750043-0.175535-3.949529-0.175535v-2.047904c1.375021 0 2.750043 0.175535 4.095808 0.175535l-0.146279 2.047904z m-68.107437 0v-2.047904c1.375021 0 2.720787-0.175535 4.095808-0.175535v2.047904c-1.5213 0-2.896321 0.175535-4.095808 0.175535z m60.062099-0.351069c-1.345766 0-2.720787 0-3.920273-0.146279v-2.047904c1.375021 0 2.750043 0 4.095808 0.146279l-0.175535 2.047904z m-52.046018 0v-2.047904c1.375021 0 2.750043 0 4.095808-0.146279v2.047904c-1.5213 0.146279-2.896321 0.146279-4.095808 0.146279z m44.029937-0.146279h-3.920274v-2.047904h4.095809l-0.175535 2.047904z m-35.9846 0v-2.047904h4.095808v2.047904h-4.095808z m27.968518-0.175535h-3.920273v-2.047904h4.095808l-0.175535 2.047904z m-19.952436 0v-2.047904h4.095808v2.047904h-4.095808z m11.936355 0h-4.095808v-2.047904h4.095808v2.047904z" fill="#CC4900" p-id="1354"></path></svg>