<?xml version="1.0" encoding="utf-8"?>
<!-- Generator: Adobe Illustrator 25.0.1, SVG Export Plug-In . SVG Version: 6.00 Build 0)  -->
<svg version="1.1" id="图层_1" xmlns="http://www.w3.org/2000/svg" xmlns:xlink="http://www.w3.org/1999/xlink" x="0px" y="0px"
	 viewBox="0 0 100 100" style="enable-background:new 0 0 100 100;" xml:space="preserve">
<style type="text/css">
	.st0{fill:#F5F5F5;}
	.st1{fill:#8C8C8C;}
</style>
<rect class="st0" width="100" height="100"/>
<g id="图层_2">
	<g>
		<path class="st1" d="M67,35H33c-1.66,0-3,1.34-3,3v24c0,1.66,1.34,3,3,3h34c1.66,0,3-1.34,3-3V38C70,36.34,68.66,35,67,35z
			 M40.34,46.94c0.8-2.46,2.53-4.6,4.48-5.61c5.52-2.84,10.27-0.72,12.78,2.35c-4.16-1.24-8.36-0.38-11.72,3.26
			c-2.11,2.28-3.44,7.3-1.42,11.42C40.19,55.5,39.12,50.71,40.34,46.94z M37.01,56.17c-1.11-2.46-1.05-6.13,2.08-8.43
			c0.02-0.01,0.01,0.04,0,0.14c0.03-0.03,0.05-0.07,0.08-0.1c0.1-0.1-0.92,3.34,0.76,6.95c0.11,0.22,0.22,0.44,0.35,0.66
			c0.02,0.03,0.03,0.06,0.05,0.09c0.9,1.52,2.33,3.05,4.57,4.33C41.48,60.61,38.2,58.79,37.01,56.17z M51.03,59.36
			c-2.91,0.86-8.14-2.5-5.25-7.79c0,0,0,0,0,0c0,0,0,0,0,0c-0.04,0.16-0.07,0.33-0.08,0.5c-0.03,0.39,0.02,0.8,0.16,1.21
			c0.29,0.86,1,1.73,2.43,2.45c1.05,0.41,1.85,0.46,2.43,0.29c0.19-0.06,0.36-0.14,0.5-0.24c0.5-0.35,0.71-0.91,0.66-1.45
			c-0.01-0.08-0.02-0.15-0.04-0.23c-0.2-0.66-0.65-1.37-1.88-1.31c-0.41,0.02-0.91,0.13-1.52,0.35c0,0,0.22-0.26,0.62-0.54
			c0.13-0.09,0.29-0.19,0.46-0.28c0.29-0.49,0.82-0.91,1.33-1.02c0.55-0.11,0.85-0.22,1.1-0.42c0.15-0.12,0.28-0.27,0.43-0.48
			c0,0,0.05,0.17,0.04,0.39c-0.01,0.3-0.13,0.71-0.6,0.98c-0.12,0.07-0.26,0.12-0.42,0.17l0.01,0c0.41,0.03,0.86,0.16,1.33,0.37
			c0.06,0.03,0.11,0.04,0.17,0.07c0,0,0,0,0,0c0.45,0.23,0.84,0.53,1.16,0.88c0.04,0.04,0.08,0.08,0.12,0.13
			c0.01,0.01,0.02,0.03,0.04,0.04c0.43,0.49,0.66,0.99,0.66,1.52c0,0.04-0.02,0.08-0.02,0.13c0.02,0.33,0.01,0.67-0.09,1.03
			C54.42,57.33,53.13,58.89,51.03,59.36z M54.62,59.66c3.89-1.39,4.51-6.06,2.72-8.42c-2.89-3.81-10.33-4.18-12.63,0.15
			c0.93-3.45,4.04-7.51,10.15-7.24c4.93,0.45,7.96,4.06,8.69,7.91C64.2,55.52,61.35,61.48,54.62,59.66z"/>
	</g>
</g>
</svg>
